<svg xmlns="http://www.w3.org/2000/svg" version="1.1" xmlns:xlink="http://www.w3.org/1999/xlink" viewBox="0 0 5.926196266928529 4.729881572705698"><g transform="matrix(0.8419323280819853,0,0,0.8419323280819853,2.9659661704265337,4.140102515575562)"><rect width="6.8142027535647145" height="6.8142027535647145" x="-3.4105078702339187" y="-5.515538919817114" fill="#876a57"></rect><g transform="matrix(1,0,0,1,0,0)"><path d=" M -1.8923782696766878 -1.3683417755428189 L -1.8905587093869514 -1.4449803347452623 L -2.3674750937231757 -1.4563033309431752 L -2.369607572024523 -1.3664848921326684 L -2.273931408943765 -1.3642133391594944 L -2.277709604195065 -1.205078496484357 L -2.50274384491052 -1.2104212817937101 L -2.4867618472064033 -1.8835714291833248 L -2.261727606490948 -1.8782286438739717 L -2.265528980854219 -1.7181175138204594 L -2.3612051439349764 -1.7203890667936332 L -2.363627361135963 -1.6183670357534379 L -1.8867109767997383 -1.6070440395555248 L -1.8848566478420454 -1.6851470298255309 L -1.75110527700466 -1.6819714914854815 L -1.7586268988393023 -1.3651662372027695 L -1.8923782696766878 -1.3683417755428189 M -1.8477173404277132 -2.4657222267355845 L -1.8981985113817044 -2.338139230989473 L -1.9467799368081597 -2.3573615985769356 Q -1.954145516911767 -2.33874628603035 -1.9577563828755822 -2.322321131953429 Q -1.9613672488393976 -2.3058959778765082 -1.960045864193943 -2.2919827336988297 Q -1.9587244795484888 -2.2780694895211506 -1.9514255884080414 -2.2659920184980233 Q -1.944126697267594 -2.2539145474748965 -1.9299471468807972 -2.244628281344439 L -1.7596851418815376 -2.177260170640714 L -1.7217793515922417 -2.2730609254536307 L -1.5973745799394494 -2.223837292566109 L -1.7188168275013642 -1.9169116515541107 L -1.8432215991541565 -1.9661352844416322 L -1.8153761133966169 -2.036510246507993 L -2.03694373590232 -2.1241786145704404 L -2.06442992506944 -2.0547117165307425 L -2.188834696722232 -2.103935349418264 L -2.106016832630453 -2.3132441075640204 L -2.072872495657264 -2.3001297820136952 Q -2.0808590911346245 -2.3263948809326225 -2.079605043151374 -2.354779959274836 Q -2.0783509951681234 -2.3831650376170495 -2.0666738559794777 -2.412677118483588 Q -2.054817068495622 -2.4426432313634576 -2.0417876558175956 -2.474245824001443 Q -2.0287582431395688 -2.505848416639428 -2.0179793454269728 -2.5330903374393094 L -1.8477173404277132 -2.4657222267355845 M -1.5932233575259496 -2.6659475340809946 L -1.5806668863195565 -2.6573684284999017 Q -1.5603597351520986 -2.647405202003733 -1.5393232129066936 -2.646693825567476 Q -1.5182866906612886 -2.6459824491312194 -1.4983988696263888 -2.6522743869363907 Q -1.4785110485914887 -2.6585663247415616 -1.4604288248240807 -2.6714559488575778 Q -1.4423466010566723 -2.684345572973594 -1.428261058893283 -2.7012095916122236 Q -1.4141755167298935 -2.718073610250853 -1.4035596866164535 -2.7349727932900336 Q -1.3929438565030132 -2.7518719763292143 -1.3846095803887506 -2.7690863176363285 Q -1.376275304274488 -2.7863006589434423 -1.369691320165618 -2.8037045244552874 Q -1.363107336056748 -2.8211083899671325 -1.3567724738544238 -2.839356529520838 L -1.2455161747679375 -2.816412216337603 Q -1.2502414025670745 -2.7840957043793693 -1.2559279535918426 -2.758626000638526 Q -1.261614504616611 -2.733156296897683 -1.2706429874082692 -2.7101598175806063 Q -1.2796714701999272 -2.6871633382635296 -1.2937634510228897 -2.6645789255366092 Q -1.307855431845852 -2.641994512809689 -1.330392299307275 -2.6150120829878816 Q -1.372648925797443 -2.5644200270719932 -1.4221918314991076 -2.538999686387876 Q -1.4717347372007719 -2.513579345703759 -1.5225965523389537 -2.5105732095205497 Q -1.5734583674771356 -2.50756707333734 -1.623421428194187 -2.5254409533754982 Q -1.6733844889112386 -2.5433148334136564 -1.7161066694624334 -2.5789982068942425 Q -1.7588288500136282 -2.614681580374829 -1.7839404710893854 -2.66078564598738 Q -1.8090520921651425 -2.7068897115999313 -1.814434544449895 -2.75719153900335 Q -1.8198169967346476 -2.8074933664067685 -1.8046302986262506 -2.8584284814487395 Q -1.7894436005178536 -2.9093635964907105 -1.7512561306526644 -2.955083824799884 Q -1.7130686607874754 -3.000804053109057 -1.6683114054695913 -3.023541504303129 Q -1.623554150151707 -3.0462789554972005 -1.5764133151898776 -3.0482577320933912 Q -1.5292724802280482 -3.050236508689582 -1.4821531074647953 -3.03314730499147 Q -1.4350337347015425 -3.016058101293358 -1.3924967859153639 -2.9824380318662396 Q -1.3821888505274547 -2.9757369985735984 -1.3728508232446077 -2.9682555813806264 Q -1.3635127959617606 -2.960774164187655 -1.3543951648444807 -2.951886338998202 L -1.5932233575259496 -2.6659475340809946 M -1.6600712346004363 -2.8738327650230757 Q -1.6775999092926541 -2.8528464307172254 -1.6849046796000404 -2.8338179072631893 Q -1.6922094499074267 -2.8147893838091536 -1.6918540099163981 -2.7973151894962056 Q -1.6914985699253697 -2.7798409951832577 -1.6852640836021553 -2.764454538225041 Q -1.6790295972789406 -2.7490680812668242 -1.6694797587099568 -2.735365879952613 L -1.5339455418933434 -2.897635214853204 Q -1.5488783292012798 -2.9056543326995334 -1.5641901649186787 -2.9101728665350777 Q -1.5795020006360774 -2.9146914003706224 -1.5953206650459981 -2.9132712901721662 Q -1.611139329455919 -2.91185117997371 -1.6273104627541817 -2.9027730056966967 Q -1.6434815960524445 -2.8936948314196838 -1.6600712346004363 -2.8738327650230757 M -1.508578278456116 -3.528780497852203 L -1.309407000512385 -3.6398087444381133 L -1.096147177840947 -3.2572463540408396 L -1.0215112599819471 -3.2988522280291357 L -1.015291939610213 -3.3598986421241888 L -1.0804348508833166 -3.476757164943423 L -0.8518356967551799 -3.60419001327329 L -0.7866927854820762 -3.4873314904540558 L -0.8660201038922132 -3.443110390100781 L -0.8953150881630528 -3.302117570887649 L -0.754712380577696 -3.2474490493176624 L -0.6813559355962789 -3.2883416797518734 L -0.6097938323364096 -3.1599679010343937 L -0.7296377918700037 -3.093160754801758 L -0.9784988001638748 -3.2026394626264922 L -1.045031389798183 -3.1655507978140682 L -1.0046142550666954 -3.0930473347510397 L -0.9594062133921013 -3.118248606995379 L -0.8942633021189976 -3.001390084176145 L -1.138642621737323 -2.8651605653458954 L -1.2037855330104266 -2.9820190881651296 L -1.135546979539341 -3.0200587443830003 L -1.3751968137119268 -3.4499616312508397 L -1.4434353671830125 -3.4119219750329686 L -1.508578278456116 -3.528780497852203 M -0.5519341245917252 -3.944775364300379 L -0.1620727641908593 -3.9816522326439294 Q -0.1051977278231519 -3.9870320251578883 -0.05886613736317198 -3.974248389588782 Q -0.012534546903192001 -3.961464754019675 0.02078036893639934 -3.935924047189492 Q 0.05409528477599068 -3.9103833403593082 0.07394355518752949 -3.874250073100508 Q 0.09379182559906829 -3.838116805841707 0.09765424073729556 -3.797283446398225 Q 0.10119478794733716 -3.759852866908366 0.09584085517590535 -3.7308997157476194 Q 0.09048692240447342 -3.7019465645868728 0.077243563580075 -3.678623144922458 Q 0.06400020475567658 -3.655299725258043 0.04322542842077959 -3.636413749101393 Q 0.022450652085882705 -3.6175277729447433 -0.004942450096201645 -3.6012037663069707 Q 0.021044741870601902 -3.590909907098864 0.04246307792049442 -3.566696210196061 Q 0.06388141397038671 -3.5424825132932583 0.07751203868013612 -3.5020826650797887 L 0.11136200432118804 -3.408663752718879 L 0.17212593206446514 -3.414411394293622 L 0.18666258902475075 -3.271100487084684 L -0.02722643663158464 -3.250868788741589 L -0.07294632968361714 -3.4231100326863504 Q -0.08026412496740143 -3.4538073334975268 -0.09139530893921083 -3.475560863664964 Q -0.10252649291102017 -3.497314393832401 -0.11895239040299221 -3.5102292656692784 Q -0.13537828789496426 -3.5231441375061556 -0.15765398202794212 -3.527903537012794 Q -0.17992967616091993 -3.5326629365194324 -0.20958247289963916 -3.529858087430958 L -0.27229084633070116 -3.5239265213258233 L -0.25711707257338 -3.363509752083572 L -0.18954758492285584 -3.369901129514686 L -0.17694875459101944 -3.2367065999014226 L -0.48222672757324364 -3.2078304486299145 L -0.49482555790508004 -3.3410249782431776 L -0.418506064659524 -3.348244016061055 L -0.4629698198817348 -3.818313761083046 L -0.5392893131272909 -3.8110947232651693 L -0.5519341245917252 -3.944775364300379 M -0.3015808277955908 -3.8335794971055637 L -0.2847057521321458 -3.655176605251302 L -0.18796957916484863 -3.6643268506382927 Q -0.16026122811391424 -3.6669477751963755 -0.1386259603076398 -3.674144086660017 Q -0.11699069250136529 -3.681340398123659 -0.10222664677156695 -3.693772291926882 Q -0.08746260104176867 -3.7062041857301047 -0.08051900966603998 -3.72353664389674 Q -0.07357541829031117 -3.7408691020633755 -0.07573653152241444 -3.763716338894848 Q -0.07978287119103344 -3.806494144026115 -0.11266096627094435 -3.827416792347809 Q -0.14553906135085526 -3.8483394406695033 -0.20484465482829373 -3.842729742492554 L -0.3015808277955908 -3.8335794971055637 M 0.4378662697418835 -3.4213646161009725 L 0.4350430337446679 -3.4064215454582785 Q 0.4340602415264938 -3.3838233068055015 0.4418451913456427 -3.364267338894687 Q 0.4496301411647916 -3.3447113709838723 0.4633698506587984 -3.3290163306882676 Q 0.47710956015280515 -3.3133212903926634 0.49616900513715756 -3.301926257127453 Q 0.5152284501215099 -3.2905312238622426 0.5363258178399986 -3.284391297312882 Q 0.5574231855584871 -3.278251370763522 0.5771612519722709 -3.275304004034691 Q 0.5968993183860547 -3.27235663730586 0.61601108006431 -3.2716256991825254 Q 0.6351228417425654 -3.270894761059191 0.6537062710699564 -3.271843199741505 Q 0.6722897003973471 -3.2727916384238194 0.6915466243367944 -3.274306879884542 L 0.7151471911460144 -3.1631879398241023 Q 0.6836483602753154 -3.1545561163389118 0.6580360676733701 -3.1495508052720593 Q 0.6324237750714249 -3.144545494205207 0.6077368311763757 -3.143593462891284 Q 0.5830498872813263 -3.142641431577361 0.55670972492758 -3.146493115483512 Q 0.5303695625738336 -3.150344799389663 0.49661377422425185 -3.160168681868639 Q 0.43332167106878605 -3.17858846151672 0.39016618486890214 -3.213777909320177 Q 0.34701069866901824 -3.2489673571236337 0.32385897924411694 -3.2943541281210647 Q 0.30070725981921564 -3.3397408991184956 0.2970432868990249 -3.3926782047382034 Q 0.29337931397883427 -3.445615510357911 0.3089337945705468 -3.499062175244749 Q 0.3244882751622594 -3.552508840131587 0.35665135693595545 -3.5940023884237897 Q 0.3888144387096515 -3.6354959367159925 0.43273521656872965 -3.6605999185709583 Q 0.4766559944278078 -3.685703900425924 0.5294060747271712 -3.692219326136124 Q 0.5821561550265345 -3.698734751846324 0.6393534630633259 -3.6820887287569475 Q 0.6965507711001173 -3.6654427056675707 0.7353293094145191 -3.6335612289672747 Q 0.774107847728921 -3.6016797522669783 0.7948261622494212 -3.559289596320748 Q 0.8155444767699213 -3.516899440374518 0.8187868091728955 -3.4668818089509235 Q 0.8220291415758697 -3.416864177527329 0.8082904806020137 -3.3644146753851 Q 0.8062859014780462 -3.352284587104871 0.8031774677758221 -3.340730021052034 Q 0.8000690340735981 -3.3291754549991976 0.7955838601687015 -3.3172587503862645 L 0.4378662697418835 -3.4213646161009725 M 0.6014921168613712 -3.5659726728185634 Q 0.5752376148116964 -3.5736134703022118 0.5548768362939928 -3.5726737510688813 Q 0.5345160577762891 -3.571734031835551 0.5186512310583078 -3.564400473512179 Q 0.5027864043403265 -3.5570669151888064 0.4911918336741794 -3.5451850883718086 Q 0.4795972630080322 -3.533303261554811 0.4708751766614703 -3.5190598438711245 L 0.6738787371527051 -3.4599801061850584 Q 0.6752359800115679 -3.476875439257817 0.6732344692591337 -3.492714107628847 Q 0.6712329585066993 -3.5085527759998767 0.6635880441313671 -3.522474059736777 Q 0.6559431297560347 -3.5363953434736777 0.641141628742924 -3.5475682736226086 Q 0.6263401277298133 -3.558741203771539 0.6014921168613712 -3.5659726728185634 M 1.1253974125224042 -3.4708025229652875 L 1.302661245244106 -3.339320953939138 L 1.298297918838371 -3.3334383046231526 Q 1.3232310536175542 -3.3277113691671802 1.3464759900089525 -3.3180691555780513 Q 1.3697209264003507 -3.3084269419889227 1.3905062873168332 -3.2930098553553258 Q 1.4352144221183245 -3.2598485746717394 1.4611395286196571 -3.214477914115111 Q 1.4870646351209897 -3.1691072535584834 1.4937756082360947 -3.1191422168520924 Q 1.5004865813511998 -3.0691771801457013 1.48757178022651 -3.0185707133647113 Q 1.47465697910182 -2.9679642465837213 1.4423683636993805 -2.924432641645427 Q 1.409788859869892 -2.8805088600860675 1.3654999290599452 -2.8531734674689977 Q 1.3212109982499984 -2.8258380748519274 1.271986158766231 -2.817666171524077 Q 1.2227613192824636 -2.8094942681962265 1.1717691639579084 -2.8214792718652606 Q 1.120777008633353 -2.8334642755342947 1.0748923439686648 -2.867498221499028 Q 1.0490086869783277 -2.886696857684262 1.0302907249156947 -2.908179705789377 Q 1.0115727628530617 -2.929662553894491 0.997477835758706 -2.9540997028126 L 0.9314461628185823 -2.8650756098306833 L 1.0090971337895933 -2.8074797012749806 L 0.9293937047781664 -2.7000233071029753 L 0.664282308937745 -2.8966638837881016 L 0.7439857379491719 -3.004120277960107 L 0.8106557635303429 -2.954669245361776 L 1.089617765070337 -3.330766624963794 L 1.0456939835109773 -3.3633461287932827 L 1.1253974125224042 -3.4708025229652875 M 1.3015931957878628 -3.191168653336267 Q 1.2768860686607229 -3.2094946242403544 1.2457170364094916 -3.212551659232881 Q 1.2145480041582604 -3.2156086942254074 1.1821919869348232 -3.203131857189327 L 1.0972525662365142 -3.0886162838381392 Q 1.0949669083311178 -3.05930684649822 1.1072281928241638 -3.030758331136422 Q 1.11948947731721 -3.0022098157746235 1.146549664170744 -2.9821385143082426 Q 1.1665506718450953 -2.9673032045287435 1.1902631207415737 -2.9615697809952706 Q 1.2139755696380519 -2.9558363574617976 1.2376361139145258 -2.9598684209899644 Q 1.2612966581909997 -2.963900484518131 1.2832482793241904 -2.977103282098838 Q 1.3051999004573815 -2.990306079679545 1.3217805407991747 -3.0126601470802905 Q 1.340106511703262 -3.0373672742074307 1.3470034889449307 -3.0626484295881715 Q 1.3539004661865994 -3.087929584968913 1.3506021118035556 -3.111349884915346 Q 1.3473037574205122 -3.1347701848617793 1.3346450687518958 -3.155406319995749 Q 1.3219863800832798 -3.176042455129719 1.3015931957878628 -3.191168653336267 M 1.9302762478444335 -3.110635474225319 L 2.0653723815153873 -2.9269359800375545 L 1.5610838343018671 -2.556072503878748 L 1.607369447551016 -2.4931347756773725 L 1.4995885880061608 -2.413870662988205 L 1.3182068410860581 -2.6605078853773447 L 1.4259877006309134 -2.7397719980665123 L 1.4722733138800623 -2.676834269865137 L 1.8687810015487272 -2.968433633334776 L 1.8224953882995782 -3.0313713615361513 L 1.9302762478444335 -3.110635474225319 M 1.688566431624014 -2.062700674309689 Q 1.6726422227925672 -2.0751053881224717 1.6607003989152582 -2.0858377192363022 Q 1.6487585750379492 -2.0965700503501328 1.6395709849034343 -2.1083010131967406 Q 1.6303833947689195 -2.120031976043349 1.6231581221758073 -2.1335132099148693 Q 1.6159328495826955 -2.1469944437863897 1.6097746205639016 -2.1639788852002875 Q 1.5942958287058524 -2.206669508213598 1.5937680833862051 -2.244653056427131 Q 1.5932403380665578 -2.2826366046406643 1.6052624212414057 -2.3132245906606146 Q 1.6172845044162534 -2.343812576680565 1.6405625185252637 -2.3662761651619775 Q 1.663840532634274 -2.3887397536433896 1.6964322985906726 -2.4005568958145886 Q 1.7294831035042033 -2.412540476607917 1.762061541997841 -2.41006966123668 Q 1.7946399804914785 -2.407598845865443 1.8232629834774738 -2.3909689001571954 Q 1.8518859864634694 -2.374338954448948 1.8756985568839943 -2.343759259427628 Q 1.8995111273045193 -2.3131795644063087 1.9156556736510866 -2.2686527855644685 Q 1.9274728158222856 -2.23606101960807 1.933766683038372 -2.2079589509498545 Q 1.9400605502544586 -2.179856882291639 1.9433330528324806 -2.1550741095915953 L 1.9580222994607164 -2.1604001454997412 Q 1.975924818788879 -2.1668912517627943 1.9865108497352082 -2.178520336850472 Q 1.9970968806815372 -2.19014942193815 2.001095258590988 -2.205622588290121 Q 2.0050936365004386 -2.221095754642092 2.0026707999951405 -2.2399539633012235 Q 2.0002479634898425 -2.2588121719603547 1.9927582254940122 -2.2794689250313116 Q 1.9771129950138335 -2.3226185870017546 1.956720412824621 -2.3523607579273222 Q 1.9363278306354084 -2.38210292885289 1.9092765180752245 -2.406574148249092 L 1.9823519680344668 -2.4829309808269344 Q 2.031461434490948 -2.447759710748502 2.067003782272292 -2.402735096047036 Q 2.1025461300536357 -2.3577104813455705 2.123350957819831 -2.300330611704024 Q 2.139495504166398 -2.255803832862184 2.143357352913741 -2.2143546885229775 Q 2.1472192016610836 -2.1729055441837715 2.1347756909458075 -2.1377499725396776 Q 2.122332180230532 -2.102594400895584 2.092102835415547 -2.0742343833055434 Q 2.0618734906005622 -2.0458743657155036 2.0104611274017365 -2.027233240036993 L 1.8374034405628326 -1.9644858794941482 L 1.8605384090388415 -1.9006794644527485 L 1.7347617347845716 -1.8550752819892486 L 1.6628602500246012 -2.0533801114704335 L 1.688566431624014 -2.062700674309689 M 1.7217694641339918 -2.193159542965952 Q 1.7335866063051906 -2.160567777009553 1.7537979424027497 -2.1377716058048555 Q 1.7740092785003088 -2.114975434600158 1.795981547592989 -2.101647311888006 L 1.8565746899344622 -2.123617210009108 L 1.8166294206233675 -2.2337865597208775 Q 1.8128013323143877 -2.244344455734922 1.8059264099276107 -2.2532782424369273 Q 1.7990514875408337 -2.2622120291389325 1.7901713052108454 -2.268081508801065 Q 1.7812911228808574 -2.2739509884631968 1.770821777162982 -2.275608563692625 Q 1.7603524314451064 -2.2772661389220534 1.7488764575167972 -2.2731051733688146 Q 1.727760665488708 -2.2654489967508544 1.7191061516589448 -2.2449115944009037 Q 1.7104516378291816 -2.224374192050953 1.7217694641339918 -2.193159542965952 M 2.261719421225724 -1.7627570002071244 L 2.2610863902899547 -1.514710932975451 L 2.1272977634760206 -1.5150523709211217 L 2.1273974533871653 -1.5541147437135112 L 1.937759272884569 -1.4818445704567378 L 2.127021123972594 -1.4066542864222407 L 2.1271320289987425 -1.450111176153774 L 2.2609206558126766 -1.4497697382081032 L 2.2602876248769075 -1.2017236709764296 L 2.1264989980629734 -1.2020651089221004 L 2.126639810062465 -1.2572407104913506 L 1.6588793118933085 -1.454235886923051 L 1.6586575018410115 -1.3673221074599842 L 1.5248688750270771 -1.367663545405655 L 1.5256701326879032 -1.681627366724486 L 1.6594587595018373 -1.6812859287788153 L 1.6592332110778722 -1.5929073103360338 L 1.7553271064157654 -1.5545760104572601 L 2.1277999514034125 -1.711829073862784 L 2.12793079441179 -1.7630984381527954 L 2.261719421225724 -1.7627570002071244" fill="#f2f0f0" fill-rule="nonzero"></path></g><g transform="matrix(1,0,0,1,0,0)"><g transform="matrix(1,0,0,1,0,0)" clip-path="url(#SvgjsClipPath68922)"><g clip-path="url(#a184b9809-e44a-45e3-9e43-b605c96b265fa812eb72-b8df-4797-aea9-bb038adf9226)"><path d=" M 0.8053498298835455 -1.1869594707593263 C 0.6006142700642514 -1.1869594707593263 0.43466004218571475 -1.0213253088940557 0.43466004218571475 -0.817069848094661 C 0.43466004218571475 -0.7260644116559649 0.46277250701759787 -0.638259635349931 0.5452961941047392 -0.5341848367028641 C 0.6170443254119176 -0.4436594992840672 0.8053498298835455 -0.24265804295287863 0.8053498298835455 -0.24265804295287863 C 0.8053498298835455 -0.24265804295287863 0.9701304823801062 -0.43405751888608046 1.0504670517099277 -0.5341848367028641 C 1.1308036210397505 -0.6343121545196473 1.1759862732458322 -0.727398020044574 1.1759862732458322 -0.817069848094661 C 1.1759862732458322 -1.0213253088940557 1.010032045367295 -1.1869594707593263 0.8053498298835455 -1.1869594707593263 M 0.8053498298835455 -0.6272707022277904 C 0.7395905151649951 -0.6261448004542456 0.6783388102891554 -0.6605824422129638 0.6451298354763084 -0.7173514400809613 C 0.6119208606634616 -0.7741204379489592 0.6119208606634616 -0.844389367925862 0.6451298354763084 -0.9011583657938598 C 0.6783388102891552 -0.9579273636618573 0.7395905151649951 -0.9923650054205759 0.8053498298835455 -0.9912391036470307 C 0.9046423771491536 -0.9895390607626933 0.984244850121458 -0.9085620028260972 0.984244850121458 -0.8092549029374105 C 0.984244850121458 -0.7099478030487236 0.9046423771491536 -0.6289707451121278 0.8053498298835455 -0.6272707022277904" fill="#f2f0f0" transform="matrix(1,0,0,1,0,0)" fill-rule="nonzero"></path></g><g clip-path="url(#a184b9809-e44a-45e3-9e43-b605c96b265fa812eb72-b8df-4797-aea9-bb038adf9226)"><path d=" M -0.8453906335370005 -1.8964391334994544 C -0.802288410417149 -1.9501568793926354 -0.7780167377444605 -2.000140521797711 -0.7780167377444605 -2.048257112458733 C -0.7781345248980542 -2.158038414697564 -0.8672097795135859 -2.2469465039559062 -0.976991109324965 -2.2468580736904245 C -1.0867724391363416 -2.246946503955905 -1.1758476937518723 -2.1580384146975615 -1.1759654809054647 -2.0482571124587325 C -1.1759654809054647 -1.999447045435634 -1.1608690339464078 -1.9522906528144102 -1.1165932354445802 -1.8964391334994544 C -1.0780786251815448 -1.8478424438185328 -0.9769911093249626 -1.7399268530122711 -0.9769911093249626 -1.7399268530122711 C -0.9769911093249626 -1.7399268530122711 -0.8885462009923963 -1.8426680432707288 -0.8453906335370005 -1.8964391334994544 M -1.0747179320422495 -2.0440962542862717 C -1.0755463166453276 -2.079545405508217 -1.0571080731968574 -2.112662105743188 -1.0265388331587473 -2.130630135877272 C -0.995969593120637 -2.1485981660113564 -0.9580659698648324 -2.1485981660113564 -0.9274967298267222 -2.130630135877272 C -0.8969274897886119 -2.112662105743188 -0.8784892463401418 -2.0795454055082168 -0.8793176309432202 -2.0440962542862717 C -0.8805577607551954 -1.991027246151413 -0.9239342855041669 -1.9486525130432617 -0.9770177814927348 -1.9486525130432617 C -1.0301012774813025 -1.9486525130432617 -1.073477802230274 -1.9910272461514125 -1.0747179320422495 -2.0440962542862717" fill="#f2f0f0" transform="matrix(1,0,0,1,0,0)" fill-rule="nonzero"></path></g><g clip-path="url(#a184b9809-e44a-45e3-9e43-b605c96b265fa812eb72-b8df-4797-aea9-bb038adf9226)"><path d=" M 0.4153493927186527 -2.2864929149998914 C 0.4153493927186527 -2.2864929149998914 0.5037943010512191 -2.389234105258349 0.546949868506615 -2.4430051954870744 C 0.5900520916264662 -2.4967229413802556 0.6143237642991548 -2.5467065837853307 0.6143237642991548 -2.5948231744463532 C 0.6142059771455612 -2.7046044766851844 0.5251307225300295 -2.7935125659435265 0.41534939271865046 -2.7934241356780447 C 0.3055680629072737 -2.793512565943525 0.216492808291743 -2.704604476685182 0.21637502113815055 -2.5948231744463532 C 0.21637502113815055 -2.5459597630877098 0.23147146809720764 -2.4988567148020304 0.27574726659903503 -2.4430051954870744 C 0.31426187686207063 -2.394408505806153 0.4153493927186527 -2.2864929149998914 0.4153493927186527 -2.2864929149998914 M 0.4153493927186527 -2.6883357946556345 C 0.45079828061987137 -2.689173799445196 0.4839199547542936 -2.6707445839931983 0.5018962945244518 -2.6401802728783 C 0.5198726342946101 -2.609615961763401 0.5198829819815622 -2.5717123844577117 0.5019233330202393 -2.541138262808079 C 0.48396368405891654 -2.5105641411584463 0.4508520772225033 -2.4921168440026618 0.41540273705419684 -2.4929354935566055 C 0.36233332983212785 -2.494161052236798 0.3199466632204664 -2.537526033316014 0.31993217139557384 -2.5906095878971405 C 0.3199176795706813 -2.6436931424782673 0.3622806625626769 -2.6870812602349616 0.41534939271865245 -2.6883357946556345" fill="#f2f0f0" transform="matrix(1,0,0,1,0,0)" fill-rule="nonzero"></path></g><g clip-path="url(#a184b9809-e44a-45e3-9e43-b605c96b265fa812eb72-b8df-4797-aea9-bb038adf9226)"><path d=" M -0.28687544038744095 -2.5776996427366106 C -0.39665677019881995 -2.5777880730020915 -0.4857320248143506 -2.488879983743748 -0.4858498119679431 -2.379098681504919 C -0.4858498119679431 -2.33028861448182 -0.4707533650088861 -2.2831322218605967 -0.4264775665070586 -2.2272807025456407 C -0.3879629562440231 -2.178684012864719 -0.28687544038744095 -2.0707684220584577 -0.28687544038744095 -2.0707684220584577 C -0.28687544038744095 -2.0707684220584577 -0.1984305320548745 -2.173509612316915 -0.15527496459947887 -2.2272807025456407 C -0.11217274147962741 -2.280998448438822 -0.08790106880693882 -2.330982090843897 -0.08790106880693882 -2.379098681504919 C -0.0880188559605326 -2.4888799837437503 -0.17709411057606417 -2.577788073002093 -0.28687544038744317 -2.5776996427366106 M -0.28687544038744095 -2.2772110006151713 C -0.322324591609386 -2.2763826160120932 -0.3554412918443566 -2.2948208594605637 -0.3734093219784407 -2.325390099498674 C -0.39137735211252467 -2.355959339536784 -0.39137735211252456 -2.3938629627925883 -0.37340932197844046 -2.4244322028306984 C -0.35544129184435636 -2.4550014428688085 -0.32232459160938576 -2.473439686317279 -0.2868754403874407 -2.472611301714201 C -0.23380643225258158 -2.4713711719022258 -0.19143169914443003 -2.427994647153254 -0.19143169914443003 -2.374911151164686 C -0.1914316991444298 -2.321827655176118 -0.23380643225258113 -2.278451130427147 -0.2868754403874406 -2.2772110006151713" fill="#f2f0f0" transform="matrix(1,0,0,1,0,0)" fill-rule="nonzero"></path></g><g clip-path="url(#a184b9809-e44a-45e3-9e43-b605c96b265fa812eb72-b8df-4797-aea9-bb038adf9226)"><path d=" M -0.9287678299928516 -1.6352652666742162 C -0.9287678299928516 -1.66301777643059 -0.9512656843192748 -1.6855156307570132 -0.9790181940756486 -1.6855156307570132 C -1.0067707038320224 -1.6855156307570132 -1.0292685581584458 -1.66301777643059 -1.0292685581584458 -1.6352652666742162 L -1.0292685581584458 -1.5794137473592602 C -1.0292685581584458 -1.5516612376028864 -1.0067707038320224 -1.5291633832764633 -0.9790181940756486 -1.5291633832764633 C -0.9512656843192748 -1.5291633832764633 -0.9287678299928516 -1.5516612376028864 -0.9287678299928516 -1.5794137473592602 Z" fill="#f2f0f0" transform="matrix(1,0,0,1,0,0)" fill-rule="nonzero"></path></g><g clip-path="url(#a184b9809-e44a-45e3-9e43-b605c96b265fa812eb72-b8df-4797-aea9-bb038adf9226)"><path d=" M -0.24761400942678435 -0.797599165620966 L -0.3634779062291571 -0.797599165620966 C -0.391230415985531 -0.797599165620966 -0.41372827031195414 -0.7751013112945428 -0.41372827031195414 -0.7473488015381693 C -0.41372827031195414 -0.7195962917817949 -0.391230415985531 -0.6970984374553719 -0.3634779062291571 -0.6970984374553719 L -0.24761400942678435 -0.6970984374553719 C -0.21986149967041035 -0.6970984374553719 -0.19736364534398743 -0.7195962917817949 -0.19736364534398743 -0.7473488015381693 C -0.19736364534398743 -0.7751013112945424 -0.21986149967041035 -0.797599165620966 -0.24761400942678435 -0.797599165620966" fill="#f2f0f0" transform="matrix(1,0,0,1,0,0)" fill-rule="nonzero"></path></g><g clip-path="url(#a184b9809-e44a-45e3-9e43-b605c96b265fa812eb72-b8df-4797-aea9-bb038adf9226)"><path d=" M -0.5372737514327163 -0.797599165620966 L -0.6532443369061777 -0.797599165620966 C -0.6809968466625516 -0.797599165620966 -0.7034947009889747 -0.7751013112945428 -0.7034947009889747 -0.7473488015381693 C -0.7034947009889747 -0.7195962917817949 -0.6809968466625516 -0.6970984374553719 -0.6532443369061777 -0.6970984374553719 L -0.5372737514327163 -0.6970984374553719 C -0.5095212416763424 -0.6970984374553719 -0.48702338734991923 -0.7195962917817949 -0.48702338734991923 -0.7473488015381693 C -0.48702338734991923 -0.7751013112945424 -0.5095212416763424 -0.797599165620966 -0.5372737514327163 -0.797599165620966" fill="#f2f0f0" transform="matrix(1,0,0,1,0,0)" fill-rule="nonzero"></path></g><g clip-path="url(#a184b9809-e44a-45e3-9e43-b605c96b265fa812eb72-b8df-4797-aea9-bb038adf9226)"><path d=" M 0.057995688906914644 -0.7677796820516627 C 0.030203290088297585 -0.7794087472003355 -0.001909999909413429 -0.7874103975319908 -0.03930437912601725 -0.7922113877309847 L -0.03935772346156163 -0.7938117177973154 C -0.03935772346156163 -0.8125355795733897 -0.038770935770573445 -0.8310994083428302 -0.03765070472414167 -0.8488630720791057 C -0.036294256318576634 -0.8668943283327584 -0.044730155922843906 -0.8842639875441756 -0.05974052867530277 -0.8943463912354632 C -0.07475090142776208 -0.9044287949267504 -0.09402085861573872 -0.9056690421712958 -0.11019987288246891 -0.8975940405168816 C -0.1263788871491991 -0.8895190388624676 -0.1369718427420037 -0.8733741091610752 -0.13793805554755845 -0.8553177366799749 C -0.13921000103555303 -0.8193605572583096 -0.13951239544074445 -0.7833756230405609 -0.13884490925181292 -0.7474021458737088 C -0.13778555873361964 -0.7230387308325152 -0.1193865195451207 -0.7029527381731882 -0.09520924277651766 -0.6997656542325905 C -0.08987480922208047 -0.6972584704620046 -0.005537414726430656 -0.6853626836356099 0.019267701301701745 -0.6750138825400023 C 0.04457558828954156 -0.6656293266830553 0.07277935464514629 -0.6778911562772136 0.08317811600001423 -0.7027994840955549 C 0.0935768773548824 -0.7277078119138958 0.08246383273839086 -0.7563836753008908 0.057995688906914644 -0.7677796820516627" fill="#f2f0f0" transform="matrix(1,0,0,1,0,0)" fill-rule="nonzero"></path></g><g clip-path="url(#a184b9809-e44a-45e3-9e43-b605c96b265fa812eb72-b8df-4797-aea9-bb038adf9226)"><path d=" M -0.8051156602010008 -0.8193103101875248 C -0.8352552097835702 -0.8313661300205526 -0.858726717423093 -0.848276284388118 -0.8767571028370904 -0.8710009713300197 C -0.8943871023482446 -0.8914722184953847 -0.925039103688808 -0.8943618825004582 -0.9461842732364932 -0.8775460968194857 C -0.9673294427841784 -0.860730311138513 -0.9714158325797684 -0.8302147943858407 -0.9554399977650369 -0.8084280657364731 C -0.9266340565710769 -0.772153917566301 -0.8885995453279406 -0.7444148630832284 -0.8424566950820601 -0.7259577229848762 C -0.8257808614758542 -0.719287389312897 -0.8068131751227146 -0.7220201982128684 -0.7926985799859765 -0.7331267270082833 C -0.7785839848492384 -0.7442332558036977 -0.7714668237287178 -0.7620261585365125 -0.7740280623699143 -0.7798030208687758 C -0.7765893010111108 -0.7975798832010388 -0.7884398263303226 -0.8126399768174004 -0.8051156600770952 -0.8193103101379626" fill="#f2f0f0" transform="matrix(1,0,0,1,0,0)" fill-rule="nonzero"></path></g><g clip-path="url(#a184b9809-e44a-45e3-9e43-b605c96b265fa812eb72-b8df-4797-aea9-bb038adf9226)"><path d=" M -0.9242869058071245 -1.006495583612721 C -0.9275242320598714 -1.0366483330352145 -0.9290203561151001 -1.0669626561542551 -0.9287678299928515 -1.0972876427092388 L -0.9287678299928515 -1.11633157049858 C -0.9287678299928516 -1.1440988108864591 -0.9512776258555415 -1.166608606749149 -0.9790448662434208 -1.166608606749149 C -1.0068121066313003 -1.166608606749149 -1.0293219024939901 -1.1440988108864591 -1.0293219024939901 -1.11633157049858 L -1.0293219024939901 -1.0972876427092395 C -1.0293219024939901 -1.0583996220973932 -1.0276148837565702 -1.0248993793755288 -1.024147501946186 -0.9949732071351369 C -1.0227834888622278 -0.9765605642230719 -1.0114423276588411 -0.9603748205313347 -0.9946017374906696 -0.9528064340792499 C -0.977761147322498 -0.9452380476271649 -0.9581278016476448 -0.9475034336665711 -0.94345334127444 -0.9587081721041995 C -0.9287788809012354 -0.9699129105418276 -0.921421831986275 -0.9882561400164513 -0.9242869058071245 -1.006495583612721" fill="#f2f0f0" transform="matrix(1,0,0,1,0,0)" fill-rule="nonzero"></path></g><g clip-path="url(#a184b9809-e44a-45e3-9e43-b605c96b265fa812eb72-b8df-4797-aea9-bb038adf9226)"><path d=" M -0.9790181940756486 -1.456561742600575 C -1.0067707038320226 -1.456561742600575 -1.0292685581584458 -1.4340638882741517 -1.0292685581584458 -1.4063113785177779 L -1.0292685581584458 -1.2901807600376833 C -1.0292685581584458 -1.2624282502813096 -1.0067707038320226 -1.2399303959548862 -0.9790181940756486 -1.2399303959548862 C -0.9512656843192748 -1.2399303959548862 -0.9287678299928517 -1.2624282502813096 -0.9287678299928517 -1.2901807600376833 L -0.9287678299928517 -1.4063113785177779 C -0.9287678299928517 -1.4340504330008506 -0.9512791395925759 -1.456561742600575 -0.9790181940756486 -1.456561742600575" fill="#f2f0f0" transform="matrix(1,0,0,1,0,0)" fill-rule="nonzero"></path></g><g clip-path="url(#a184b9809-e44a-45e3-9e43-b605c96b265fa812eb72-b8df-4797-aea9-bb038adf9226)"><path d=" M 0.20495933333165528 -0.47817328438127493 C 0.20495933333165528 -0.5285303371351611 0.200905163830283 -0.5698721971820482 0.19258344748536138 -0.6045993596214334 C 0.1854159631706882 -0.6308038218596286 0.15873710019181475 -0.6465830513619495 0.13232050199185053 -0.6402419148600482 C 0.1059039037918863 -0.6339007783581478 0.08929474529270665 -0.6077305344257433 0.09480328043253028 -0.5811278519819103 C 0.1013112893689434 -0.5541889625320033 0.10440526083051704 -0.5205286868035053 0.10440526083051704 -0.4780132513746418 C 0.10440526083051704 -0.4502208525560252 0.1269165704302413 -0.42781623162738924 0.15470896924885835 -0.42781623162738924 C 0.18244802373193103 -0.42781623162738924 0.20495933333165528 -0.45043422989820225 0.20495933333165528 -0.47817328438127493" fill="#f2f0f0" transform="matrix(1,0,0,1,0,0)" fill-rule="nonzero"></path></g><g clip-path="url(#a184b9809-e44a-45e3-9e43-b605c96b265fa812eb72-b8df-4797-aea9-bb038adf9226)"><path d=" M 0.30871406596545614 -0.30677793427721234 C 0.2734001158350827 -0.3164332590107435 0.24886172148467223 -0.32950262121911456 0.2337119301900712 -0.346732841599946 C 0.22493241192595081 -0.35676401176892414 0.2125199482375728 -0.3628864112445629 0.19921719305101826 -0.3637472366366197 C 0.1859144378644635 -0.3646080620286769 0.1728164326089785 -0.36013645286844254 0.16281730825160268 -0.35132045445676185 C 0.1527784927305491 -0.34254838632172957 0.14664607197953083 -0.330139815655627 0.14577522388912456 -0.31683686034356073 C 0.1449043757987185 -0.30353390503149447 0.14936679529955654 -0.2904317669448413 0.15817635105924222 -0.2804258325182931 C 0.1867155705754806 -0.24793913217177188 0.22725726558920223 -0.22484103488105944 0.2822019311999038 -0.20979793225754673 C 0.3089822192769145 -0.20247680839931004 0.3366268757342761 -0.2182515778075933 0.34394799959251277 -0.24503186588460357 C 0.35126912345074945 -0.27181215396161384 0.33549435404246664 -0.2994568104189761 0.30871406596545614 -0.30677793427721234" fill="#f2f0f0" transform="matrix(1,0,0,1,0,0)" fill-rule="nonzero"></path></g><g clip-path="url(#a184b9809-e44a-45e3-9e43-b605c96b265fa812eb72-b8df-4797-aea9-bb038adf9226)"><path d=" M 0.5805567998995682 -0.2880540725011387 C 0.5615662164457722 -0.2880540725011387 0.48747093437464173 -0.2883207941788606 0.47045409133598737 -0.2888542375343044 C 0.4524327569783433 -0.28955223868234237 0.43541940275919755 -0.2805392128399493 0.42587412178724793 -0.2652374708214986 C 0.416328840815299 -0.24993572880304837 0.41571566455241005 -0.23069221375271454 0.4242674204410293 -0.21481382690599338 C 0.4328191763296485 -0.19893544005927222 0.4492242173148693 -0.18885756891031402 0.4672534312033252 -0.18840685370425447 C 0.505018355192981 -0.18782149125709724 0.5427873431215093 -0.1875369791069743 0.5805567998996823 -0.1875533443355426 C 0.608309309655942 -0.18755334433554438 0.6308071639823651 -0.2100511986619673 0.6308071639823651 -0.23780370841834175 C 0.6308071639823651 -0.2655562181747153 0.608309309655942 -0.2880540725011387 0.5805567998995682 -0.2880540725011387" fill="#f2f0f0" transform="matrix(1,0,0,1,0,0)" fill-rule="nonzero"></path></g><g clip-path="url(#a184b9809-e44a-45e3-9e43-b605c96b265fa812eb72-b8df-4797-aea9-bb038adf9226)"><path d=" M -0.6039541708631794 -1.400123435594631 C -0.5933186549162038 -1.37449213677505 -0.5639185926276401 -1.3623356528555708 -0.5382872938080593 -1.3729711688025463 C -0.5126559949884782 -1.3836066847495219 -0.5004995110689991 -1.4130067470380856 -0.5111350270159746 -1.4386380458576664 C -0.5236037785972851 -1.4681670680896535 -0.5313619321087333 -1.4994696874780717 -0.5341264356355983 -1.5314038453693264 C -0.5363654919360198 -1.5590827017353945 -0.5606187520094758 -1.5797057345209242 -0.588297608399136 -1.577466678512147 C -0.6159764647887962 -1.5752276225033697 -0.6365994978298753 -1.5509743626472126 -0.6343604421127421 -1.52329550623396 C -0.6307369085865773 -1.4808993274885391 -0.6204764404300361 -1.4393354310438833 -0.6039541708631794 -1.400123435594631" fill="#f2f0f0" transform="matrix(1,0,0,1,0,0)" fill-rule="nonzero"></path></g><g clip-path="url(#a184b9809-e44a-45e3-9e43-b605c96b265fa812eb72-b8df-4797-aea9-bb038adf9226)"><path d=" M -0.25732267849585966 -1.0852318228762117 C -0.27348767223195103 -1.106760466020475 -0.3037371874300214 -1.1117457111590534 -0.3259556887493663 -1.096542826655013 C -0.3481741900687111 -1.0813399421509726 -0.3544844970288904 -1.0513388444230838 -0.3402731202673559 -1.0284734498570014 C -0.308906650967266 -0.9825973212888426 -0.2935968266660317 -0.9549116111413143 -0.2862353083609085 -0.9397084755111687 C -0.2741561905900305 -0.9147253246094502 -0.24411128557483974 -0.9042645387950423 -0.21912813458312486 -0.9163436563797815 C -0.19414498359140986 -0.9284227739645206 -0.18368419755315013 -0.9584676789017723 -0.19576331495175014 -0.9834508299834839 C -0.20856595580830506 -1.0100163097586492 -0.2293169023350652 -1.044263373178135 -0.25732267849585966 -1.0852318228762117" fill="#f2f0f0" transform="matrix(1,0,0,1,0,0)" fill-rule="nonzero"></path></g><g clip-path="url(#a184b9809-e44a-45e3-9e43-b605c96b265fa812eb72-b8df-4797-aea9-bb038adf9226)"><path d=" M -0.38278855569621917 -1.8564308818411766 C -0.3715862452319013 -1.8564308818411766 -0.3603305904320391 -1.8601649853292823 -0.3509953317117743 -1.8677932253121274 C -0.32439130354854917 -1.8898056155032807 -0.29616302126478444 -1.909777615602975 -0.2665512485450333 -1.9275388811218241 C -0.24345603551381012 -1.9417111669005385 -0.23573655734580734 -1.9716303485767632 -0.24909204733934676 -1.9952073169184257 C -0.26244753733288606 -2.018784285260088 -0.2920782878625138 -2.027545928850887 -0.31610813626575607 -2.01502359141459 C -0.3178684993387203 -2.014010049039247 -0.36097072245857165 -1.9895249990243808 -0.4146351240162084 -1.945622610871364 C -0.431053136608462 -1.9321510783048914 -0.4372419972673516 -1.9098200010476862 -0.4301005534209843 -1.8898191733908587 C -0.42295910957461713 -1.8698183457340312 -0.40402608458393374 -1.8564572240586412 -0.38278855569621917 -1.8564308818411766" fill="#f2f0f0" transform="matrix(1,0,0,1,0,0)" fill-rule="nonzero"></path></g><g clip-path="url(#a184b9809-e44a-45e3-9e43-b605c96b265fa812eb72-b8df-4797-aea9-bb038adf9226)"><path d=" M -0.5758417060312961 -1.644440492387848 C -0.5635970961874697 -1.6391105086290823 -0.5497299228475405 -1.6388963450947271 -0.5373265602077447 -1.6438456675051143 C -0.5249231975679489 -1.648794989915501 -0.5150129167851663 -1.658497087485898 -0.5098014186273655 -1.670792594146767 C -0.49747887711661587 -1.699438502334094 -0.480515378413506 -1.728351132199143 -0.4593376772023908 -1.7566236300376592 C -0.4440638505325737 -1.778859279130748 -0.4490485691165208 -1.809184673311449 -0.47063637645894685 -1.825361213296158 C -0.4922241838013728 -1.8415377532808672 -0.52272912593016 -1.8378060703769497 -0.5397809352033016 -1.816902729202798 C -0.5647045396438829 -1.7840110177712323 -0.5856540862889666 -1.748289354902051 -0.6021938077902149 -1.7104807797917791 C -0.613138039755584 -1.6849671278840381 -0.60134415729628 -1.6554107989678064 -0.5758417060312961 -1.644440492387848" fill="#f2f0f0" transform="matrix(1,0,0,1,0,0)" fill-rule="nonzero"></path></g><g clip-path="url(#a184b9809-e44a-45e3-9e43-b605c96b265fa812eb72-b8df-4797-aea9-bb038adf9226)"><path d=" M -0.3673720427238961 -1.151805553635586 C -0.3455008651507042 -1.1688757410097848 -0.3416067286559651 -1.2005089319875963 -0.3587302603657081 -1.2223801095607885 C -0.38189464432558773 -1.2519605202930406 -0.4053853690862058 -1.281283915546833 -0.4291981276198159 -1.3103449188734473 C -0.44056628153742206 -1.3242477998184667 -0.45848798769074206 -1.331029753592711 -0.4762123127049668 -1.3281360838023675 C -0.4939366377191916 -1.325242414012024 -0.5087708349311412 -1.3131127379438468 -0.5151270057227939 -1.2963161872582818 C -0.5214831765144466 -1.2795196365727164 -0.5183956673178335 -1.2606080069390029 -0.5070275129858948 -1.2467051263327888 C -0.48227574148647023 -1.216458888315363 -0.45901761118912476 -1.1874395697792257 -0.43794659864909835 -1.1604473359937741 C -0.42975501998032517 -1.1499122764006464 -0.4177018893580995 -1.1430770967269264 -0.40445580850347596 -1.1414551276426868 C -0.3912097276488524 -1.1398331585584471 -0.37786350706218397 -1.1435582135943434 -0.3673720427238961 -1.151805553635586" fill="#f2f0f0" transform="matrix(1,0,0,1,0,0)" fill-rule="nonzero"></path></g><g clip-path="url(#a184b9809-e44a-45e3-9e43-b605c96b265fa812eb72-b8df-4797-aea9-bb038adf9226)"><path d=" M 0.47930925103635325 -1.4505338326840609 C 0.4745451898072717 -1.4629868206844625 0.4650273098709661 -1.4730359444299046 0.4528511648941187 -1.478468686190322 C 0.44067501991727154 -1.4839014279507396 0.42683893167359876 -1.484272357386668 0.41438919467885427 -1.479499806884654 C 0.37883602099925207 -1.4660183957450958 0.3435846187495577 -1.4517542057328578 0.30866072162990377 -1.436717649778066 C 0.2836842630336509 -1.4253823738512472 0.27241142803410323 -1.3961129747710834 0.283331834967677 -1.3709523571961295 C 0.29425224190125077 -1.3457917396211756 0.32333108731011495 -1.3340360907182742 0.3486689732881898 -1.3445386379573967 C 0.3776349474887828 -1.357074556810324 0.40894807245332854 -1.3697171643343398 0.45034327683576003 -1.3856137763265621 C 0.46279626483616165 -1.3903778375556437 0.47284538858160374 -1.3998957174919493 0.47827813034202116 -1.4120718624687965 C 0.48371087210243857 -1.4242480074456436 0.4840818015383672 -1.4380840956893164 0.47930925103635325 -1.4505338326840609" fill="#f2f0f0" transform="matrix(1,0,0,1,0,0)" fill-rule="nonzero"></path></g><g clip-path="url(#a184b9809-e44a-45e3-9e43-b605c96b265fa812eb72-b8df-4797-aea9-bb038adf9226)"><path d=" M -0.07355144254550305 -0.9680876620207739 C -0.047103029861454315 -0.9597815488216184 -0.01891086663097541 -0.9743899985767186 -0.0104450935965128 -1.000787739709473 C -0.00004294816536054569 -1.0335945060692608 0.013399824391820747 -1.0645875650205403 0.029616502397309397 -1.0930200958656897 C 0.04206206098620435 -1.117008239161084 0.03333027646372111 -1.146543539238054 0.00984178152348214 -1.159908177384759 C -0.013646713416756828 -1.1732728155314638 -0.043497827822126744 -1.1656906667370086 -0.05776151922436945 -1.142737016593043 C -0.0777935746371825 -1.107360266016977 -0.09404644208710256 -1.0699733068995043 -0.10625152023420248 -1.0311940109697637 C -0.11030055563932861 -1.0184894617788725 -0.10912839510614858 -1.0046959501764519 -0.1029936583949409 -0.9928568090192598 C -0.09685892168373322 -0.9810176678620677 -0.08626577650729317 -0.9721058668144387 -0.07355144254550305 -0.9680876620207739" fill="#f2f0f0" transform="matrix(1,0,0,1,0,0)" fill-rule="nonzero"></path></g><g clip-path="url(#a184b9809-e44a-45e3-9e43-b605c96b265fa812eb72-b8df-4797-aea9-bb038adf9226)"><path d=" M 0.586851431493804 -2.1784706355225416 C 0.5895091840692872 -2.1915366171546165 0.5868650855360136 -2.205123213247899 0.5795013189957374 -2.216238898881386 C 0.5721375524554615 -2.2273545845148734 0.5606579090671515 -2.2350879303711557 0.5475900005331473 -2.237736192312337 C 0.5090781801281303 -2.2457727592403893 0.47017266137720637 -2.251791095779434 0.43103262736869774 -2.2557665777263347 C 0.4033832320328623 -2.2581824012932374 0.37901055651257054 -2.2377265496684164 0.3765947329456676 -2.210077154332581 C 0.37417890937876463 -2.182427758996746 0.39463476100358563 -2.1580550834764543 0.42228415633942085 -2.155639259909551 C 0.4227109110237759 -2.1555859155740067 0.466773332183426 -2.1515850904081786 0.5275858747040083 -2.1392625488974293 C 0.5406554875851362 -2.1364838920853724 0.5542934861506763 -2.139071254569276 0.5654372777345771 -2.1464436099375632 C 0.5765810693184779 -2.15381596530585 0.5842966670207541 -2.1653554194347686 0.586851431493804 -2.1784706355225416" fill="#f2f0f0" transform="matrix(1,0,0,1,0,0)" fill-rule="nonzero"></path></g><g clip-path="url(#a184b9809-e44a-45e3-9e43-b605c96b265fa812eb72-b8df-4797-aea9-bb038adf9226)"><path d=" M 0.20677304074016378 -1.2712435209194317 C 0.22195281399821964 -1.2808297428991027 0.23086531432739865 -1.2977860899703018 0.23015328906970112 -1.3157252702202997 C 0.22944126381200358 -1.3336644504702975 0.21921288654377635 -1.3498610756303542 0.20332108803668625 -1.3582140336824193 C 0.18742928952959637 -1.3665669917344847 0.1682884120566357 -1.3658072696262824 0.1531086390005949 -1.3562210473267213 C 0.11914845834995913 -1.3350463126407148 0.08706059697793944 -1.3110071862402086 0.05719552387374871 -1.2843662274633467 C 0.04295145362776642 -1.272614868957086 0.03629095894187295 -1.2540038710899544 0.039844420801561364 -1.2358831406210442 C 0.043397882661249776 -1.217762410152134 0.05659399882816296 -1.2030452790057278 0.07422132260280634 -1.1975438773244251 C 0.09184864637744972 -1.1920424756431227 0.11107317252033089 -1.1966412826245998 0.12430269798856708 -1.209524124694595 C 0.14873440366788881 -1.2314486466033312 0.17572663745334016 -1.2516128054391031 0.20677304074016378 -1.2712435209194317" fill="#f2f0f0" transform="matrix(1,0,0,1,0,0)" fill-rule="nonzero"></path></g><g clip-path="url(#a184b9809-e44a-45e3-9e43-b605c96b265fa812eb72-b8df-4797-aea9-bb038adf9226)"><path d=" M 0.5889852049155788 -1.4422654606746834 C 0.5954238228111288 -1.4422622644184344 0.6018014970988876 -1.443512433525978 0.6077624110271971 -1.445946219827245 C 0.6492643040807176 -1.4626963411881773 0.682871235473671 -1.4775794108050568 0.713544228411684 -1.492889235106291 C 0.7383800731299675 -1.5052776962024217 0.7484706712753111 -1.5354539583483195 0.7360822101791806 -1.5602898030666033 C 0.7236937490830497 -1.5851256477848867 0.6935174869371519 -1.5952162459302306 0.6686816422188684 -1.5828277848341 C 0.6364344539010554 -1.5669580171751556 0.6035658953200804 -1.552383382915373 0.5701546544684111 -1.5391387740232583 C 0.5478058312652363 -1.5301530973921247 0.53497683999044 -1.5065724169948824 0.539573037223146 -1.482927391004531 C 0.5441692344558517 -1.4592823650141795 0.564897643392205 -1.4422246814641488 0.5889852049155788 -1.4422654606746834" fill="#f2f0f0" transform="matrix(1,0,0,1,0,0)" fill-rule="nonzero"></path></g><g clip-path="url(#a184b9809-e44a-45e3-9e43-b605c96b265fa812eb72-b8df-4797-aea9-bb038adf9226)"><path d=" M 0.796654703189813 -1.6667384246453947 C 0.7761496642421761 -1.6480305227319616 0.7746927967085695 -1.6162421533994817 0.7934006984692279 -1.5957371143124601 C 0.812108600229887 -1.5752320752254385 0.8438969695515119 -1.57377520745499 0.8644020087779185 -1.5924831090628742 C 0.8958019352838944 -1.6207839051842428 0.9226634970726013 -1.6537446427575255 0.9440451022989089 -1.690209932284918 C 0.9579802797031176 -1.7142208616388932 0.9498122688967094 -1.7449822590618582 0.9258013395427342 -1.758917436466067 C 0.901790410188759 -1.772852613870276 0.8710290127657938 -1.7646846030638674 0.8570938353615851 -1.7406736737098922 C 0.8408972482854664 -1.7130478053228517 0.8205078130906669 -1.6881053894534852 0.796654703189813 -1.6667384246453947" fill="#f2f0f0" transform="matrix(1,0,0,1,0,0)" fill-rule="nonzero"></path></g><g clip-path="url(#a184b9809-e44a-45e3-9e43-b605c96b265fa812eb72-b8df-4797-aea9-bb038adf9226)"><path d=" M 0.681164216736251 -2.0958936040998557 C 0.7134040431164812 -2.0839360816276487 0.7445488107859932 -2.069211478001662 0.7742500822611769 -2.0518845272757504 C 0.7981386597721658 -2.0377700592870163 0.8289423671989167 -2.045614037416584 0.8431709637845044 -2.069434813669848 C 0.8573167850283339 -2.093318895345854 0.8494668381467587 -2.1241460423701564 0.8256206773904067 -2.138355695193175 C 0.7908870263424708 -2.1586484001443464 0.7544585540389754 -2.175889901489362 0.7167448885443441 -2.1898863233290378 C 0.6999547063396483 -2.1962421985165923 0.6810491191278307 -2.1931578137146603 0.6671496787626543 -2.1817950268469217 C 0.6532502383974781 -2.170432239979183 0.646468600563058 -2.1525173287119514 0.6493593426417386 -2.1347986668521695 C 0.6522500847204191 -2.1170800049923875 0.6643740342145039 -2.102249478835339 0.6811642166086216 -2.0958936041481695" fill="#f2f0f0" transform="matrix(1,0,0,1,0,0)" fill-rule="nonzero"></path></g><g clip-path="url(#a184b9809-e44a-45e3-9e43-b605c96b265fa812eb72-b8df-4797-aea9-bb038adf9226)"><path d=" M 0.8975288417042178 -1.875048054946162 L 0.8975288417042178 -1.8743012342485406 C 0.8975288417042178 -1.8465487244921668 0.9200266960306407 -1.8240508701657436 0.9477792057870147 -1.8240508701657436 C 0.9755317155433882 -1.8240508701657436 0.9980295698698116 -1.8465487244921668 0.9980295698698116 -1.8743012342485406 L 0.9980295698698116 -1.875048054946162 C 0.9980295698698116 -1.9215109712053087 0.9864538490566837 -1.9654133593583256 0.9638891951214146 -2.0054749553521476 C 0.9502928222418325 -2.029677382915694 0.919650840181534 -2.038275289027703 0.8954484126179874 -2.024678916148121 C 0.8712459850544403 -2.0110825432685386 0.8626480789424313 -1.9804405612082405 0.8762444518220138 -1.9562381336446937 C 0.8903413418006316 -1.9315115932956082 0.8976820167501214 -1.9035103219343958 0.8975288417042178 -1.875048054946162" fill="#f2f0f0" transform="matrix(1,0,0,1,0,0)" fill-rule="nonzero"></path></g></g></g></g><defs><clipPath id="SvgjsClipPath68922"><path d=" M -1.1759654809054645 -2.7934039782702182 h 2.351930961810929 v 2.6059039782702182 h -2.351930961810929 Z"></path></clipPath><clipPath id="a184b9809-e44a-45e3-9e43-b605c96b265fa812eb72-b8df-4797-aea9-bb038adf9226"><path d=" M -1.1759654809054647 -0.1875 L 1.1759862732458322 -0.1875 L 1.1759862732458322 -2.7933707913425008 L -1.1759654809054647 -2.7933707913425008 Z"></path></clipPath></defs></svg>